<mxfile host="app.diagrams.net" modified="2022-04-25T17:21:10.250Z" agent="5.0 (Windows NT 10.0; Win64; x64) AppleWebKit/537.36 (KHTML, like Gecko) Chrome/100.0.4896.127 Safari/537.36" etag="HO6Ez0di7JZSbAgUJ_YI" version="17.4.6" type="github">
  <diagram id="JiN5gUxKg_kHs-5ToOMZ" name="Page-1">
    <mxGraphModel dx="680" dy="400" grid="1" gridSize="10" guides="1" tooltips="1" connect="1" arrows="1" fold="1" page="1" pageScale="1" pageWidth="827" pageHeight="1169" math="0" shadow="0">
      <root>
        <mxCell id="0" />
        <mxCell id="1" parent="0" />
        <mxCell id="Cw4yV0d1_NEsQbWrNPIG-6" style="edgeStyle=orthogonalEdgeStyle;rounded=0;orthogonalLoop=1;jettySize=auto;html=1;entryX=0;entryY=0.5;entryDx=0;entryDy=0;fontSize=13;" edge="1" parent="1" source="Cw4yV0d1_NEsQbWrNPIG-1" target="Cw4yV0d1_NEsQbWrNPIG-3">
          <mxGeometry relative="1" as="geometry" />
        </mxCell>
        <mxCell id="Cw4yV0d1_NEsQbWrNPIG-1" value="&lt;font size=&quot;1&quot;&gt;S0/0&lt;/font&gt;" style="ellipse;whiteSpace=wrap;html=1;aspect=fixed;" vertex="1" parent="1">
          <mxGeometry x="120" y="98" width="80" height="80" as="geometry" />
        </mxCell>
        <mxCell id="Cw4yV0d1_NEsQbWrNPIG-8" style="edgeStyle=orthogonalEdgeStyle;rounded=0;orthogonalLoop=1;jettySize=auto;html=1;entryX=0.383;entryY=0.025;entryDx=0;entryDy=0;entryPerimeter=0;fontSize=13;" edge="1" parent="1" source="Cw4yV0d1_NEsQbWrNPIG-2" target="Cw4yV0d1_NEsQbWrNPIG-4">
          <mxGeometry relative="1" as="geometry" />
        </mxCell>
        <mxCell id="Cw4yV0d1_NEsQbWrNPIG-2" value="S2/0" style="ellipse;whiteSpace=wrap;html=1;aspect=fixed;" vertex="1" parent="1">
          <mxGeometry x="500" y="98" width="80" height="80" as="geometry" />
        </mxCell>
        <mxCell id="Cw4yV0d1_NEsQbWrNPIG-7" style="edgeStyle=orthogonalEdgeStyle;rounded=0;orthogonalLoop=1;jettySize=auto;html=1;entryX=0;entryY=0.5;entryDx=0;entryDy=0;fontSize=13;" edge="1" parent="1" source="Cw4yV0d1_NEsQbWrNPIG-3" target="Cw4yV0d1_NEsQbWrNPIG-2">
          <mxGeometry relative="1" as="geometry" />
        </mxCell>
        <mxCell id="Cw4yV0d1_NEsQbWrNPIG-3" value="S1/0" style="ellipse;whiteSpace=wrap;html=1;aspect=fixed;" vertex="1" parent="1">
          <mxGeometry x="310" y="98" width="80" height="80" as="geometry" />
        </mxCell>
        <mxCell id="Cw4yV0d1_NEsQbWrNPIG-9" style="edgeStyle=orthogonalEdgeStyle;rounded=0;orthogonalLoop=1;jettySize=auto;html=1;entryX=1;entryY=0.5;entryDx=0;entryDy=0;fontSize=13;" edge="1" parent="1" source="Cw4yV0d1_NEsQbWrNPIG-4" target="Cw4yV0d1_NEsQbWrNPIG-5">
          <mxGeometry relative="1" as="geometry" />
        </mxCell>
        <mxCell id="Cw4yV0d1_NEsQbWrNPIG-4" value="S3/0" style="ellipse;whiteSpace=wrap;html=1;aspect=fixed;" vertex="1" parent="1">
          <mxGeometry x="510" y="258" width="80" height="80" as="geometry" />
        </mxCell>
        <mxCell id="Cw4yV0d1_NEsQbWrNPIG-12" style="edgeStyle=orthogonalEdgeStyle;rounded=0;orthogonalLoop=1;jettySize=auto;html=1;exitX=0.5;exitY=0;exitDx=0;exitDy=0;entryX=0.617;entryY=0.983;entryDx=0;entryDy=0;entryPerimeter=0;fontSize=13;" edge="1" parent="1" source="Cw4yV0d1_NEsQbWrNPIG-5" target="Cw4yV0d1_NEsQbWrNPIG-3">
          <mxGeometry relative="1" as="geometry" />
        </mxCell>
        <mxCell id="Cw4yV0d1_NEsQbWrNPIG-5" value="S4/1" style="ellipse;whiteSpace=wrap;html=1;aspect=fixed;" vertex="1" parent="1">
          <mxGeometry x="320" y="258" width="80" height="80" as="geometry" />
        </mxCell>
        <mxCell id="Cw4yV0d1_NEsQbWrNPIG-11" value="" style="endArrow=classic;html=1;rounded=0;fontSize=13;exitX=0.033;exitY=0.333;exitDx=0;exitDy=0;exitPerimeter=0;" edge="1" parent="1" source="Cw4yV0d1_NEsQbWrNPIG-5" target="Cw4yV0d1_NEsQbWrNPIG-1">
          <mxGeometry width="50" height="50" relative="1" as="geometry">
            <mxPoint x="220" y="258" as="sourcePoint" />
            <mxPoint x="270" y="208" as="targetPoint" />
          </mxGeometry>
        </mxCell>
        <mxCell id="Cw4yV0d1_NEsQbWrNPIG-13" value="" style="endArrow=classic;html=1;rounded=0;fontSize=13;entryX=1;entryY=1;entryDx=0;entryDy=0;exitX=0;exitY=0;exitDx=0;exitDy=0;" edge="1" parent="1" source="Cw4yV0d1_NEsQbWrNPIG-4" target="Cw4yV0d1_NEsQbWrNPIG-3">
          <mxGeometry width="50" height="50" relative="1" as="geometry">
            <mxPoint x="370" y="328" as="sourcePoint" />
            <mxPoint x="420" y="278" as="targetPoint" />
          </mxGeometry>
        </mxCell>
        <mxCell id="Cw4yV0d1_NEsQbWrNPIG-15" value="" style="curved=1;endArrow=classic;html=1;rounded=0;fontSize=13;exitX=0.342;exitY=0.017;exitDx=0;exitDy=0;exitPerimeter=0;entryX=0.5;entryY=0;entryDx=0;entryDy=0;" edge="1" parent="1" source="Cw4yV0d1_NEsQbWrNPIG-2" target="Cw4yV0d1_NEsQbWrNPIG-3">
          <mxGeometry width="50" height="50" relative="1" as="geometry">
            <mxPoint x="370" y="128" as="sourcePoint" />
            <mxPoint x="420" y="78" as="targetPoint" />
            <Array as="points">
              <mxPoint x="500" y="68" />
              <mxPoint x="430" y="60" />
              <mxPoint x="370" y="78" />
            </Array>
          </mxGeometry>
        </mxCell>
        <mxCell id="Cw4yV0d1_NEsQbWrNPIG-16" value="0" style="text;html=1;align=center;verticalAlign=middle;resizable=0;points=[];autosize=1;strokeColor=none;fillColor=none;fontSize=13;" vertex="1" parent="1">
          <mxGeometry x="240" y="120" width="20" height="20" as="geometry" />
        </mxCell>
        <mxCell id="Cw4yV0d1_NEsQbWrNPIG-17" value="0" style="text;html=1;align=center;verticalAlign=middle;resizable=0;points=[];autosize=1;strokeColor=none;fillColor=none;fontSize=13;" vertex="1" parent="1">
          <mxGeometry x="430" y="45" width="20" height="20" as="geometry" />
        </mxCell>
        <mxCell id="Cw4yV0d1_NEsQbWrNPIG-18" value="&#xa;&#xa;&lt;span style=&quot;color: rgb(0, 0, 0); font-family: helvetica; font-size: 13px; font-style: normal; font-weight: 400; letter-spacing: normal; text-align: center; text-indent: 0px; text-transform: none; word-spacing: 0px; background-color: rgb(248, 249, 250); display: inline; float: none;&quot;&gt;1&lt;/span&gt;&#xa;&#xa;" style="text;html=1;align=center;verticalAlign=middle;resizable=0;points=[];autosize=1;strokeColor=none;fillColor=none;fontSize=13;" vertex="1" parent="1">
          <mxGeometry x="430" y="95" width="20" height="70" as="geometry" />
        </mxCell>
        <mxCell id="Cw4yV0d1_NEsQbWrNPIG-19" value="&#xa;&#xa;&lt;span style=&quot;color: rgb(0, 0, 0); font-family: helvetica; font-size: 13px; font-style: normal; font-weight: 400; letter-spacing: normal; text-align: center; text-indent: 0px; text-transform: none; word-spacing: 0px; background-color: rgb(248, 249, 250); display: inline; float: none;&quot;&gt;1&lt;/span&gt;&#xa;&#xa;" style="text;html=1;align=center;verticalAlign=middle;resizable=0;points=[];autosize=1;strokeColor=none;fillColor=none;fontSize=13;" vertex="1" parent="1">
          <mxGeometry x="540" y="185" width="20" height="70" as="geometry" />
        </mxCell>
        <mxCell id="Cw4yV0d1_NEsQbWrNPIG-20" value="0" style="text;html=1;align=center;verticalAlign=middle;resizable=0;points=[];autosize=1;strokeColor=none;fillColor=none;fontSize=13;" vertex="1" parent="1">
          <mxGeometry x="460" y="210" width="20" height="20" as="geometry" />
        </mxCell>
        <mxCell id="Cw4yV0d1_NEsQbWrNPIG-22" value="&#xa;&#xa;&lt;span style=&quot;color: rgb(0, 0, 0); font-family: helvetica; font-size: 13px; font-style: normal; font-weight: 400; letter-spacing: normal; text-align: center; text-indent: 0px; text-transform: none; word-spacing: 0px; background-color: rgb(248, 249, 250); display: inline; float: none;&quot;&gt;1&lt;/span&gt;&#xa;&#xa;" style="text;html=1;align=center;verticalAlign=middle;resizable=0;points=[];autosize=1;strokeColor=none;fillColor=none;fontSize=13;" vertex="1" parent="1">
          <mxGeometry x="440" y="255" width="20" height="70" as="geometry" />
        </mxCell>
        <mxCell id="Cw4yV0d1_NEsQbWrNPIG-23" value="0" style="text;html=1;align=center;verticalAlign=middle;resizable=0;points=[];autosize=1;strokeColor=none;fillColor=none;fontSize=13;" vertex="1" parent="1">
          <mxGeometry x="360" y="230" width="20" height="20" as="geometry" />
        </mxCell>
        <mxCell id="Cw4yV0d1_NEsQbWrNPIG-25" value="&#xa;&#xa;&lt;span style=&quot;color: rgb(0, 0, 0); font-family: helvetica; font-size: 13px; font-style: normal; font-weight: 400; letter-spacing: normal; text-align: center; text-indent: 0px; text-transform: none; word-spacing: 0px; background-color: rgb(248, 249, 250); display: inline; float: none;&quot;&gt;1&lt;/span&gt;&#xa;&#xa;" style="text;html=1;align=center;verticalAlign=middle;resizable=0;points=[];autosize=1;strokeColor=none;fillColor=none;fontSize=13;" vertex="1" parent="1">
          <mxGeometry x="285" y="205" width="20" height="70" as="geometry" />
        </mxCell>
        <mxCell id="Cw4yV0d1_NEsQbWrNPIG-26" value="" style="curved=1;endArrow=classic;html=1;rounded=0;fontSize=13;exitX=1;exitY=0;exitDx=0;exitDy=0;entryX=0.5;entryY=0;entryDx=0;entryDy=0;" edge="1" parent="1" source="Cw4yV0d1_NEsQbWrNPIG-1" target="Cw4yV0d1_NEsQbWrNPIG-1">
          <mxGeometry width="50" height="50" relative="1" as="geometry">
            <mxPoint x="180" y="100" as="sourcePoint" />
            <mxPoint x="230" y="50" as="targetPoint" />
            <Array as="points">
              <mxPoint x="230" y="100" />
              <mxPoint x="210" y="80" />
              <mxPoint x="180" y="50" />
            </Array>
          </mxGeometry>
        </mxCell>
        <mxCell id="Cw4yV0d1_NEsQbWrNPIG-27" value="1" style="text;html=1;align=center;verticalAlign=middle;resizable=0;points=[];autosize=1;strokeColor=none;fillColor=none;fontSize=13;" vertex="1" parent="1">
          <mxGeometry x="200" y="50" width="20" height="20" as="geometry" />
        </mxCell>
        <mxCell id="Cw4yV0d1_NEsQbWrNPIG-30" style="edgeStyle=orthogonalEdgeStyle;rounded=0;orthogonalLoop=1;jettySize=auto;html=1;entryX=0.383;entryY=0.025;entryDx=0;entryDy=0;entryPerimeter=0;fontSize=13;" edge="1" parent="1" source="Cw4yV0d1_NEsQbWrNPIG-31" target="Cw4yV0d1_NEsQbWrNPIG-35">
          <mxGeometry relative="1" as="geometry" />
        </mxCell>
        <mxCell id="Cw4yV0d1_NEsQbWrNPIG-31" value="S1" style="ellipse;whiteSpace=wrap;html=1;aspect=fixed;" vertex="1" parent="1">
          <mxGeometry x="345" y="398" width="80" height="80" as="geometry" />
        </mxCell>
        <mxCell id="Cw4yV0d1_NEsQbWrNPIG-32" style="edgeStyle=orthogonalEdgeStyle;rounded=0;orthogonalLoop=1;jettySize=auto;html=1;entryX=0;entryY=0.5;entryDx=0;entryDy=0;fontSize=13;" edge="1" parent="1" source="Cw4yV0d1_NEsQbWrNPIG-33" target="Cw4yV0d1_NEsQbWrNPIG-31">
          <mxGeometry relative="1" as="geometry" />
        </mxCell>
        <mxCell id="Cw4yV0d1_NEsQbWrNPIG-33" value="S0" style="ellipse;whiteSpace=wrap;html=1;aspect=fixed;" vertex="1" parent="1">
          <mxGeometry x="155" y="398" width="80" height="80" as="geometry" />
        </mxCell>
        <mxCell id="Cw4yV0d1_NEsQbWrNPIG-34" style="edgeStyle=orthogonalEdgeStyle;rounded=0;orthogonalLoop=1;jettySize=auto;html=1;entryX=1;entryY=0.5;entryDx=0;entryDy=0;fontSize=13;" edge="1" parent="1" source="Cw4yV0d1_NEsQbWrNPIG-35" target="Cw4yV0d1_NEsQbWrNPIG-37">
          <mxGeometry relative="1" as="geometry" />
        </mxCell>
        <mxCell id="Cw4yV0d1_NEsQbWrNPIG-35" value="S2" style="ellipse;whiteSpace=wrap;html=1;aspect=fixed;" vertex="1" parent="1">
          <mxGeometry x="355" y="558" width="80" height="80" as="geometry" />
        </mxCell>
        <mxCell id="Cw4yV0d1_NEsQbWrNPIG-36" style="edgeStyle=orthogonalEdgeStyle;rounded=0;orthogonalLoop=1;jettySize=auto;html=1;exitX=0.5;exitY=0;exitDx=0;exitDy=0;entryX=0.617;entryY=0.983;entryDx=0;entryDy=0;entryPerimeter=0;fontSize=13;" edge="1" parent="1" source="Cw4yV0d1_NEsQbWrNPIG-37" target="Cw4yV0d1_NEsQbWrNPIG-33">
          <mxGeometry relative="1" as="geometry" />
        </mxCell>
        <mxCell id="Cw4yV0d1_NEsQbWrNPIG-37" value="S3" style="ellipse;whiteSpace=wrap;html=1;aspect=fixed;" vertex="1" parent="1">
          <mxGeometry x="165" y="558" width="80" height="80" as="geometry" />
        </mxCell>
        <mxCell id="Cw4yV0d1_NEsQbWrNPIG-38" value="" style="endArrow=classic;html=1;rounded=0;fontSize=13;entryX=1;entryY=1;entryDx=0;entryDy=0;exitX=0;exitY=0;exitDx=0;exitDy=0;" edge="1" parent="1" source="Cw4yV0d1_NEsQbWrNPIG-35" target="Cw4yV0d1_NEsQbWrNPIG-33">
          <mxGeometry width="50" height="50" relative="1" as="geometry">
            <mxPoint x="215" y="628" as="sourcePoint" />
            <mxPoint x="265" y="578" as="targetPoint" />
          </mxGeometry>
        </mxCell>
        <mxCell id="Cw4yV0d1_NEsQbWrNPIG-39" value="" style="curved=1;endArrow=classic;html=1;rounded=0;fontSize=13;exitX=0.342;exitY=0.017;exitDx=0;exitDy=0;exitPerimeter=0;entryX=0.5;entryY=0;entryDx=0;entryDy=0;" edge="1" parent="1" source="Cw4yV0d1_NEsQbWrNPIG-31" target="Cw4yV0d1_NEsQbWrNPIG-33">
          <mxGeometry width="50" height="50" relative="1" as="geometry">
            <mxPoint x="215" y="428" as="sourcePoint" />
            <mxPoint x="265" y="378" as="targetPoint" />
            <Array as="points">
              <mxPoint x="345" y="368" />
              <mxPoint x="275" y="360" />
              <mxPoint x="215" y="378" />
            </Array>
          </mxGeometry>
        </mxCell>
        <mxCell id="Cw4yV0d1_NEsQbWrNPIG-40" value="&#xa;&#xa;&lt;span style=&quot;color: rgb(0, 0, 0); font-family: helvetica; font-size: 13px; font-style: normal; font-weight: 400; letter-spacing: normal; text-align: center; text-indent: 0px; text-transform: none; word-spacing: 0px; background-color: rgb(248, 249, 250); display: inline; float: none;&quot;&gt;1/0&lt;/span&gt;&#xa;&#xa;" style="text;html=1;align=center;verticalAlign=middle;resizable=0;points=[];autosize=1;strokeColor=none;fillColor=none;fontSize=13;" vertex="1" parent="1">
          <mxGeometry x="270" y="395" width="30" height="70" as="geometry" />
        </mxCell>
        <mxCell id="Cw4yV0d1_NEsQbWrNPIG-41" value="&#xa;&#xa;&lt;span style=&quot;color: rgb(0, 0, 0); font-family: helvetica; font-size: 13px; font-style: normal; font-weight: 400; letter-spacing: normal; text-align: center; text-indent: 0px; text-transform: none; word-spacing: 0px; background-color: rgb(248, 249, 250); display: inline; float: none;&quot;&gt;1/0&lt;/span&gt;&#xa;&#xa;" style="text;html=1;align=center;verticalAlign=middle;resizable=0;points=[];autosize=1;strokeColor=none;fillColor=none;fontSize=13;" vertex="1" parent="1">
          <mxGeometry x="380" y="485" width="30" height="70" as="geometry" />
        </mxCell>
        <mxCell id="Cw4yV0d1_NEsQbWrNPIG-42" value="&#xa;&#xa;&lt;span style=&quot;color: rgb(0, 0, 0); font-family: helvetica; font-size: 13px; font-style: normal; font-weight: 400; letter-spacing: normal; text-align: center; text-indent: 0px; text-transform: none; word-spacing: 0px; background-color: rgb(248, 249, 250); display: inline; float: none;&quot;&gt;0/0&lt;/span&gt;&#xa;&#xa;" style="text;html=1;align=center;verticalAlign=middle;resizable=0;points=[];autosize=1;strokeColor=none;fillColor=none;fontSize=13;" vertex="1" parent="1">
          <mxGeometry x="300" y="485" width="30" height="70" as="geometry" />
        </mxCell>
        <mxCell id="Cw4yV0d1_NEsQbWrNPIG-43" value="1/1" style="text;html=1;align=center;verticalAlign=middle;resizable=0;points=[];autosize=1;strokeColor=none;fillColor=none;fontSize=13;" vertex="1" parent="1">
          <mxGeometry x="280" y="580" width="30" height="20" as="geometry" />
        </mxCell>
        <mxCell id="Cw4yV0d1_NEsQbWrNPIG-44" value="&#xa;&#xa;&lt;span style=&quot;color: rgb(0, 0, 0); font-family: helvetica; font-size: 13px; font-style: normal; font-weight: 400; letter-spacing: normal; text-align: center; text-indent: 0px; text-transform: none; word-spacing: 0px; background-color: rgb(248, 249, 250); display: inline; float: none;&quot;&gt;0/0&lt;/span&gt;&#xa;&#xa;" style="text;html=1;align=center;verticalAlign=middle;resizable=0;points=[];autosize=1;strokeColor=none;fillColor=none;fontSize=13;" vertex="1" parent="1">
          <mxGeometry x="200" y="505" width="30" height="70" as="geometry" />
        </mxCell>
        <mxCell id="Cw4yV0d1_NEsQbWrNPIG-45" value="" style="curved=1;endArrow=classic;html=1;rounded=0;fontSize=13;exitX=0.408;exitY=-0.01;exitDx=0;exitDy=0;exitPerimeter=0;entryX=0;entryY=0;entryDx=0;entryDy=0;" edge="1" parent="1" source="Cw4yV0d1_NEsQbWrNPIG-3" target="Cw4yV0d1_NEsQbWrNPIG-3">
          <mxGeometry width="50" height="50" relative="1" as="geometry">
            <mxPoint x="280" y="40" as="sourcePoint" />
            <mxPoint x="330" y="-10" as="targetPoint" />
            <Array as="points">
              <mxPoint x="330" y="40" />
              <mxPoint x="300" y="70" />
            </Array>
          </mxGeometry>
        </mxCell>
        <mxCell id="Cw4yV0d1_NEsQbWrNPIG-46" value="0" style="text;html=1;align=center;verticalAlign=middle;resizable=0;points=[];autosize=1;strokeColor=none;fillColor=none;fontSize=13;" vertex="1" parent="1">
          <mxGeometry x="290" y="40" width="20" height="20" as="geometry" />
        </mxCell>
      </root>
    </mxGraphModel>
  </diagram>
</mxfile>
